<?xml version="1.0" encoding="UTF-8"?>
<!DOCTYPE svg PUBLIC "-//W3C//DTD SVG 1.1//EN" "http://www.w3.org/Graphics/SVG/1.1/DTD/svg11.dtd">
<!-- Creator: CorelDRAW X6 -->
<svg xmlns="http://www.w3.org/2000/svg" xml:space="preserve" width="17.3566mm" height="5.588mm" version="1.1" style="shape-rendering:geometricPrecision; text-rendering:geometricPrecision; image-rendering:optimizeQuality; fill-rule:evenodd; clip-rule:evenodd"
viewBox="0 0 1736 559"
 xmlns:xlink="http://www.w3.org/1999/xlink">
 <defs>
  <style type="text/css">
   <![CDATA[
    .fil1 {fill:#CF9D75}
    .fil0 {fill:#CF9D75;fill-rule:nonzero}
   ]]>
  </style>
 </defs>
 <g id="Warstwa_x0020_1">
  <metadata id="CorelCorpID_0Corel-Layer"/>
  <g id="_169539264">
   <g>
    <path class="fil0" d="M865 330l0 -108 -127 0 0 108 -20 0 0 -230 20 0 0 104 127 0 0 -104 20 0 0 230 -20 0zm228 0l-26 -69 -99 0 -25 69 -22 0 87 -230 20 0 87 230 -22 0zm-75 -207l-1 0c-1,3 -1,7 -3,10 -1,3 -14,40 -40,109l85 0 -38 -103c-2,-6 -4,-11 -5,-17zm306 207l-20 0 -50 -171c-2,-9 -4,-16 -4,-22l-1 0c-1,6 -2,14 -5,22l-52 171 -20 0 -68 -230 22 0 51 181c2,8 4,15 5,21l1 0c1,-4 2,-11 5,-21l54 -181 15 0 51 182c2,8 4,15 5,21l1 0c0,-1 0,-2 0,-3 0,-1 18,-68 54,-199l22 0 -66 230zm251 0l-26 -69 -99 0 -25 69 -22 0 87 -230 20 0 87 230 -22 0zm-75 -207l-1 0c-1,3 -1,7 -3,10 -1,3 -14,40 -40,109l85 0 -38 -103c-2,-6 -4,-11 -5,-17zm154 -23l0 230 -20 0 0 -230 20 0zm79 0l0 230 -20 0 0 -230 20 0z"/>
    <path class="fil0" d="M850 458c-5,0 -9,-1 -12,-3 -4,-2 -6,-5 -8,-9 -2,-4 -3,-8 -3,-13 0,-5 1,-10 3,-14 2,-4 5,-7 9,-9 4,-2 8,-3 13,-3 5,0 9,1 12,3 4,2 6,5 8,9 2,4 3,8 3,13 0,5 -1,10 -3,14 -2,4 -5,7 -8,10 -4,2 -8,3 -13,3zm0 -49c-4,0 -7,1 -10,3 -3,2 -5,5 -7,8 -2,3 -2,7 -2,12 0,4 1,8 2,12 2,3 4,6 7,8 3,2 6,3 10,3 6,0 11,-2 14,-6 4,-4 5,-10 5,-17 0,-5 -1,-9 -2,-12 -2,-3 -4,-6 -7,-8 -3,-2 -6,-3 -10,-3zm39 28l0 20 -4 0 0 -51 13 0c5,0 9,1 12,4 3,3 4,6 4,11 0,3 -1,6 -2,9 -1,3 -4,4 -6,6 -3,1 -6,2 -9,2l-7 0zm0 -27l0 23 7 0c4,0 8,-1 10,-3 2,-2 3,-5 3,-9 0,-7 -4,-11 -13,-11l-8 0zm69 47l-6 -15 -22 0 -6 15 -5 0 19 -51 4 0 19 51 -5 0zm-17 -46l0 0c0,1 0,2 -1,2 0,1 -3,9 -9,24l19 0 -8 -23c0,-1 -1,-2 -1,-4zm30 46l0 -51 4 0 0 47 21 0 0 4 -25 0zm67 0l-6 -15 -22 0 -6 15 -5 0 20 -51 4 0 19 51 -5 0zm-17 -46l0 0c0,1 0,2 -1,2 0,1 -3,9 -9,24l19 0 -8 -23c0,-1 -1,-2 -1,-4zm65 46l-29 -41c-1,-1 -2,-3 -2,-3l0 0c0,1 0,2 0,4l0 40 -4 0 0 -51 5 0 29 41c1,1 1,2 2,3l0 0c0,-2 0,-4 0,-6l0 -39 5 0 0 51 -4 0zm22 -51l0 51 -4 0 0 -51 4 0zm13 51l0 -51 25 0 0 4 -20 0 0 19 19 0 0 4 -19 0 0 20 21 0 0 4 -26 0zm92 0l-29 -41c-1,-1 -2,-3 -2,-3l0 0c0,1 0,2 0,4l0 40 -4 0 0 -51 5 0 29 41c1,1 1,2 2,3l0 0c0,-2 0,-4 0,-6l0 -39 5 0 0 51 -4 0zm51 0l-6 -15 -22 0 -6 15 -5 0 19 -51 4 0 19 51 -5 0zm-17 -46l0 0c0,1 0,2 -1,2 0,1 -3,9 -9,24l19 0 -8 -23c0,-1 -1,-2 -1,-4zm44 -1l0 47 -4 0 0 -47 -15 0 0 -4 34 0 0 4 -15 0zm51 47l-8 -15c-1,-3 -3,-5 -4,-6 -1,-1 -3,-2 -5,-2l-6 0 0 22 -4 0 0 -51 15 0c3,0 5,1 8,2 2,1 4,3 5,5 1,2 2,4 2,7 0,4 -1,7 -3,9 -2,2 -5,4 -9,5l0 0c1,1 2,1 3,3 1,1 2,3 3,5l8 16 -5 0zm-23 -47l0 21 9 0c4,0 6,-1 9,-3 2,-2 3,-5 3,-8 0,-3 -1,-5 -3,-7 -2,-2 -5,-3 -8,-3l-9 0zm53 28l0 19 -4 0 0 -19 -16 -32 5 0 12 24c0,1 1,2 1,4l0 0c0,-1 0,-1 1,-1 0,0 5,-9 13,-26l5 0 -17 32zm23 12c2,1 4,2 6,3 2,1 4,1 6,1 4,0 7,-1 9,-2 2,-2 3,-4 3,-7 0,-1 0,-3 -1,-4 -1,-1 -1,-2 -3,-3 -1,-1 -4,-3 -8,-5 -4,-2 -6,-4 -8,-5 -2,-1 -3,-3 -3,-4 -1,-2 -1,-3 -1,-5 0,-4 2,-7 5,-10 3,-2 7,-4 12,-4 4,0 7,1 10,2l0 5c-3,-2 -7,-3 -10,-3 -3,0 -6,1 -8,2 -2,2 -3,4 -3,6 0,2 0,3 1,4 1,1 2,2 3,3 1,1 4,3 7,4 5,3 8,5 10,7 2,2 3,5 3,8 0,4 -2,8 -4,10 -3,2 -7,4 -12,4 -2,0 -4,0 -7,-1 -2,-1 -4,-1 -5,-2l0 -5zm66 7l-21 -24c-1,-1 -1,-1 -1,-1l0 0 0 26 -4 0 0 -51 4 0 0 24 0 0 1 -1 1 -1 20 -23 6 0 -22 25 24 27 -6 0zm34 1c-5,0 -9,-1 -12,-3 -4,-2 -6,-5 -8,-9 -2,-4 -3,-8 -3,-13 0,-5 1,-10 3,-14 2,-4 5,-7 9,-9 4,-2 8,-3 13,-3 5,0 9,1 12,3 4,2 6,5 8,9 2,4 3,8 3,13 0,5 -1,10 -3,14 -2,4 -5,7 -8,10 -4,2 -8,3 -13,3zm0 -49c-4,0 -7,1 -10,3 -3,2 -5,5 -7,8 -2,3 -2,7 -2,12 0,4 1,8 2,12 2,3 4,6 7,8 3,2 6,3 10,3 6,0 11,-2 14,-6 3,-4 5,-10 5,-17 0,-5 -1,-9 -2,-12 -2,-3 -4,-6 -7,-8 -3,-2 -6,-3 -10,-3zm78 48l-5 0 -11 -38c-1,-2 -1,-4 -1,-5l0 0c0,1 -1,3 -1,5l-12 38 -4 0 -15 -51 5 0 11 41c1,2 1,3 1,5l0 0c0,-1 1,-2 1,-5l12 -41 3 0 11 41c0,2 1,3 1,5l0 0c0,0 0,0 0,-1 0,0 4,-15 12,-45l5 0 -15 51zm23 0l0 -51 25 0 0 4 -20 0 0 19 19 0 0 4 -19 0 0 20 22 0 0 4 -26 0z"/>
   </g>
   <g>
    <g>
     <polygon class="fil1" points="157,160 180,160 180,398 157,398 "/>
     <polygon class="fil1" points="211,160 235,160 235,398 211,398 "/>
     <polygon class="fil1" points="131,162 260,162 260,150 131,150 "/>
     <polygon class="fil1" points="131,409 260,409 260,397 131,397 "/>
     <g>
      <polygon class="fil1" points="162,299 407,299 407,286 162,286 "/>
      <polygon class="fil1" points="162,326 407,326 407,313 162,313 "/>
     </g>
     <polygon class="fil1" points="329,160 352,160 352,398 329,398 "/>
     <polygon class="fil1" points="384,160 407,160 407,398 384,398 "/>
     <polygon class="fil1" points="303,162 432,162 432,150 303,150 "/>
     <polygon class="fil1" points="303,409 432,409 432,397 303,397 "/>
    </g>
    <path class="fil1" d="M281 0c154,0 279,125 279,279 0,154 -125,279 -279,279 -154,0 -279,-125 -279,-279 0,-154 125,-279 279,-279zm0 22c142,0 257,115 257,257 0,142 -115,257 -257,257 -142,0 -257,-115 -257,-257 0,-142 115,-257 257,-257z"/>
   </g>
  </g>
 </g>
</svg>
