<?xml version="1.0" encoding="UTF-8"?>
<!DOCTYPE svg PUBLIC "-//W3C//DTD SVG 1.1//EN" "http://www.w3.org/Graphics/SVG/1.1/DTD/svg11.dtd">
<!-- Creator: CorelDRAW X6 -->
<svg xmlns="http://www.w3.org/2000/svg" xml:space="preserve" width="33.8666mm" height="33.8666mm" version="1.1" style="shape-rendering:geometricPrecision; text-rendering:geometricPrecision; image-rendering:optimizeQuality; fill-rule:evenodd; clip-rule:evenodd"
viewBox="0 0 3387 3387"
 xmlns:xlink="http://www.w3.org/1999/xlink">
 <defs>
  <style type="text/css">
   <![CDATA[
    .fil0 {fill:#CF9D75}
   ]]>
  </style>
 </defs>
 <g id="Warstwa_x0020_1">
  <metadata id="CorelCorpID_0Corel-Layer"/>
  <g id="_1022265328">
   <g>
    <rect class="fil0" x="947" y="979" width="138" height="1422"/>
    <rect class="fil0" x="1275" y="979" width="138" height="1422"/>
    <rect class="fil0" x="793" y="917" width="770.972" height="75.6502"/>
    <rect class="fil0" x="793" y="2394" width="770.972" height="75.6502"/>
    <g>
     <rect class="fil0" x="976" y="1733" width="1466.71" height="75.6502"/>
     <rect class="fil0" x="976" y="1897" width="1466.71" height="75.6502"/>
    </g>
    <rect class="fil0" x="1977" y="979" width="138" height="1422"/>
    <rect class="fil0" x="2305" y="979" width="138" height="1422"/>
    <rect class="fil0" x="1823" y="917" width="770.972" height="75.6502"/>
    <rect class="fil0" x="1823" y="2394" width="770.972" height="75.6502"/>
   </g>
   <path class="fil0" d="M1693 21c924,0 1672,749 1672,1672 0,924 -749,1672 -1672,1672 -924,0 -1672,-749 -1672,-1672 0,-924 749,-1672 1672,-1672zm0 133c850,0 1540,690 1540,1540 0,850 -690,1540 -1540,1540 -850,0 -1540,-690 -1540,-1540 0,-850 690,-1540 1540,-1540z"/>
  </g>
 </g>
</svg>
